<svg width="24" height="24" viewBox="0 0 24 24" fill="none" xmlns="http://www.w3.org/2000/svg">
<g clip-path="url(#clip0_44024_240)">
<path d="M8.6839 24.0001C5.11197 23.9795 2.15735 16.688 2.15735 12.9746C2.15735 6.90879 6.70774 5.58083 8.46143 5.58083C9.25174 5.58083 10.0956 5.89119 10.84 6.16583C11.3605 6.3574 11.8988 6.55517 12.1982 6.55517C12.3774 6.55517 12.7997 6.38694 13.1725 6.23933C13.9676 5.92278 14.9571 5.52936 16.1093 5.52936C16.1113 5.52936 16.1141 5.52936 16.1161 5.52936C16.9765 5.52936 19.5851 5.71817 21.1534 8.07336L21.5207 8.6254L20.992 9.02436C20.2367 9.59426 18.8586 10.6339 18.8586 12.6931C18.8586 15.1321 20.4193 16.07 21.1692 16.5212C21.5001 16.7203 21.8427 16.9256 21.8427 17.3747C21.8427 17.6679 19.5027 23.9637 16.1044 23.9637C15.2729 23.9637 14.6852 23.7138 14.1667 23.4934C13.6421 23.2702 13.1896 23.0779 12.4419 23.0779C12.0628 23.0779 11.5835 23.2572 11.0761 23.4474C10.3827 23.7062 9.59782 24.0001 8.70724 24.0001H8.6839Z" fill="#41414D"/>
<path d="M16.4693 6.10352e-05C16.5578 3.19112 14.2757 5.40494 11.9962 5.26609C11.6206 2.71951 14.2754 6.10352e-05 16.4693 6.10352e-05Z" fill="#41414D"/>
</g>
<defs>
<clipPath id="clip0_44024_240">
<rect width="24" height="24" fill="white"/>
</clipPath>
</defs>
</svg>
