<svg width="24" height="25" viewBox="0 0 24 25" fill="none" xmlns="http://www.w3.org/2000/svg">
<g clip-path="url(#clip0_44024_245)">
<path d="M23.9873 12.474C23.9873 11.4707 23.9057 10.7385 23.729 9.97925H12.239V14.5078H18.9833C18.8474 15.6332 18.1132 17.3281 16.4814 18.4669L16.4585 18.6185L20.0915 21.4249L20.3431 21.4499C22.6547 19.3212 23.9873 16.1891 23.9873 12.474Z" fill="#4285F4"/>
<path d="M12.2391 24.4058C15.5433 24.4058 18.3172 23.3211 20.3433 21.45L16.4816 18.467C15.4482 19.1856 14.0612 19.6873 12.2391 19.6873C9.00293 19.6873 6.25624 17.5586 5.27712 14.6164L5.1336 14.6285L1.35604 17.5437L1.30664 17.6806C3.31906 21.6669 7.45274 24.4058 12.2391 24.4058Z" fill="#34A853"/>
<path d="M5.27702 14.6164C5.01867 13.8571 4.86916 13.0435 4.86916 12.2029C4.86916 11.3622 5.01867 10.5487 5.26343 9.78944L5.25659 9.62773L1.4317 6.66577L1.30655 6.72513C0.47714 8.37931 0.0012207 10.2369 0.0012207 12.2029C0.0012207 14.1689 0.47714 16.0264 1.30655 17.6806L5.27702 14.6164Z" fill="#FBBC05"/>
<path d="M12.2391 4.71846C14.5371 4.71846 16.0871 5.70824 16.971 6.53538L20.4248 3.1728C18.3036 1.20679 15.5433 6.10352e-05 12.2391 6.10352e-05C7.45273 6.10352e-05 3.31906 2.7389 1.30664 6.72513L5.26351 9.78944C6.25622 6.8472 9.00291 4.71846 12.2391 4.71846Z" fill="#EB4335"/>
</g>
<defs>
<clipPath id="clip0_44024_245">
<rect width="24" height="24.4898" fill="white"/>
</clipPath>
</defs>
</svg>
